# xmcd CD database file
#
# Track frame offsets:
#	150
#	23009
#	45829
#	63381
#	81434
#	107112
#	137327
#	156700
#	175503
#	197651
#
# Disc length: 2927 seconds
#
# Revision: 0
# Processed by: cddbd v1.5.1PL0 Copyright (c) Steve Scherf et al.
# Submitted via: CDex 1.51
#
DISCID=7a0b6d0a
DTITLE=Bonnie Raitt - Road Tested - CD 2
DYEAR=1995
DGENRE=Blues
TTITLE0=Longing In Their Hearts
TTITLE1=Come To Me
TTITLE2=Love Sneakin' Up On You
TTITLE3=Burning Down The House
TTITLE4=I Can't Make You Love Me
TTITLE5=Feeling Of Falling
TTITLE6=I Believe I'm In Love With You
TTITLE7=Rock Steady
TTITLE8=My Opening Farewell
TTITLE9=Angel From Montgomery
EXTD=YEAR: 1995
EXTT0=
EXTT1=
EXTT2=
EXTT3=
EXTT4=
EXTT5=
EXTT6=
EXTT7=
EXTT8=
EXTT9=
PLAYORDER=
